<?xml version="1.0" encoding="iso-8859-1"?>
<!-- Uploaded to: SVG Repo, www.svgrepo.com, Generator: SVG Repo Mixer Tools -->
<svg version="1.1" id="Layer_1" xmlns="http://www.w3.org/2000/svg" xmlns:xlink="http://www.w3.org/1999/xlink" 
	 viewBox="0 0 512 512" xml:space="preserve">
<rect x="403.772" y="166.733" style="fill:#FF1D25;" width="61.398" height="23.287"/>
<path style="fill:#29ABE2;" d="M457.817,314.217L457.817,314.217c0,9.94-3.948,19.473-10.978,26.502l-12.309,12.309l-12.309-12.309
	c-7.029-7.029-10.978-16.562-10.978-26.502l0,0v-7.762h46.573L457.817,314.217L457.817,314.217z"/>
<path style="fill:#0C6D95;" d="M445.739,340.718c-7.029-7.029-10.747-16.561-10.747-26.501v-7.746h-23.935v7.746
	c0,9.94,4.043,19.473,11.072,26.501l12.357,12.31l11.782-11.644L445.739,340.718z"/>
<polyline style="fill:#29ABE2;" points="457.886,244.033 457.886,189.919 411.057,189.919 411.057,228.423 "/>
<polyline style="fill:#0C6D95;" points="434.992,244.033 434.992,189.919 411.057,189.919 411.057,228.423 "/>
<rect x="46.829" y="166.733" style="fill:#C1272D;" width="61.398" height="23.287"/>
<path style="fill:#0C6D95;" d="M54.183,314.217L54.183,314.217c0,9.94,3.948,19.473,10.978,26.502l12.309,12.309l12.309-12.309
	c7.029-7.029,10.978-16.562,10.978-26.502l0,0v-7.762H54.183V314.217z"/>
<path style="fill:#29ABE2;" d="M66.261,340.718c7.029-7.029,10.747-16.561,10.747-26.501v-7.746h23.935v7.746
	c0,9.94-4.043,19.473-11.071,26.501l-12.357,12.31l-11.782-11.644L66.261,340.718z"/>
<polyline style="fill:#0C6D95;" points="54.114,244.033 54.114,189.919 100.943,189.919 100.943,228.423 "/>
<polyline style="fill:#29ABE2;" points="77.008,244.033 77.008,189.919 100.943,189.919 100.943,228.423 "/>
<path style="fill:#F2F2F2;" d="M201.886,73.588v77.622v31.049L7.285,267.644v31.543h194.602v22.792v100.909L256,399.601V19.252
	C225.821,19.252,201.886,43.578,201.886,73.588z"/>
<path style="fill:#FFFFFF;" d="M310.114,73.588v77.622v31.049l194.602,85.384v31.544H310.114v22.792v100.909L256,399.601V19.252
	C286.008,19.252,310.114,43.578,310.114,73.588z"/>
<path style="fill:#29ABE2;" d="M287.22,73.588c0-17.148-14.072-31.049-31.22-31.049S224.78,56.44,224.78,73.588v15.388h62.439
	V73.588z"/>
<path style="fill:#0C6D95;" d="M267.882,44.842c-3.601-1.46-7.724-2.303-11.848-2.303c-17.148,0-31.254,13.901-31.254,31.049v15.388
	h23.935V73.588C248.715,60.564,256.513,49.452,267.882,44.842z"/>
<polygon style="fill:#C1272D;" points="100.756,298.693 54.183,298.693 54.183,244.356 100.756,228.832 "/>
<g>
	<polygon style="fill:#FF1D25;" points="411.244,298.693 457.817,298.693 457.817,244.356 411.244,228.832 	"/>
	<path style="fill:#FF1D25;" d="M271.524,477.232v-93.209c0-8.544-6.927-15.47-15.469-15.47l0,0c-8.586,0-15.53,6.993-15.469,15.579
		l-0.094,93.085c-0.008,8.576,6.941,15.533,15.517,15.533l0,0C264.577,492.748,271.524,485.801,271.524,477.232z"/>
	<polyline style="fill:#FF1D25;" points="240.374,407.602 139.447,446.175 139.447,485.463 240.39,485.463 	"/>
</g>
<polygon style="fill:#C1272D;" points="186.14,484.986 139.567,484.986 139.567,446.175 186.14,430.65 "/>
<polyline style="fill:#FF1D25;" points="271.626,407.602 372.553,446.175 372.553,485.463 271.61,485.463 "/>
<polygon style="fill:#C1272D;" points="325.86,484.986 372.433,484.986 372.433,446.175 325.86,430.65 "/>
<path d="M318.14,143.447h-15.61v-69.86c0-25.657-20.874-46.531-46.531-46.531c-25.656,0-46.531,20.873-46.531,46.531v69.86h-15.61
	v-69.86c0-34.264,27.876-62.14,62.14-62.14s62.14,27.876,62.14,62.14V143.447z"/>
<rect x="302.829" y="329.366" width="15.61" height="78.049"/>
<rect x="193.561" y="329.366" width="15.61" height="78.049"/>
<rect x="302.829" y="205.528" width="15.61" height="69.724"/>
<rect x="193.561" y="205.528" width="15.61" height="69.724"/>
<polygon points="62.439,228.423 46.829,228.423 46.829,182.634 108.228,182.634 108.228,205.528 92.618,205.528 92.618,198.244 
	62.439,198.244 "/>
<path d="M379.837,440.821l-100.508-38.773v-18.025c0-12.834-10.441-23.275-23.274-23.275c-6.248,0-12.114,2.441-16.516,6.876
	c-4.402,4.433-6.802,10.316-6.758,16.5l-0.019,17.89l-100.6,38.808v51.927h106.471c0.29,0.324,0.566,0.657,0.875,0.966
	c4.405,4.41,10.265,6.839,16.498,6.839c6.906,0,13.117-3.02,17.391-7.805h106.439V440.821z M147.772,451.53l84.973-32.779
	l-0.059,58.388h-84.914V451.53z M263.72,477.231c0,4.252-3.459,7.712-7.711,7.712c-2.062,0-3.999-0.803-5.456-2.261
	c-1.456-1.458-2.258-3.397-2.256-5.457l0.095-93.149c-0.016-2.057,0.775-3.994,2.225-5.454c1.451-1.46,3.382-2.264,5.441-2.264
	c4.227,0,7.664,3.438,7.664,7.665v93.208H263.72z M364.228,477.138h-84.898V418.78l84.898,32.75V477.138z"/>
<polygon points="85.333,158.699 85.333,143.089 69.724,143.089 69.724,158.699 46.829,158.699 46.829,174.309 108.228,174.309 
	108.228,158.699 "/>
<path d="M77.468,364.065L59.64,346.237c-8.553-8.553-13.263-19.925-13.263-32.021h15.61c0,7.927,3.087,15.378,8.693,20.984
	l6.789,6.79l6.791-6.79c5.604-5.604,8.689-13.056,8.689-20.983h15.61c0,12.096-4.71,23.468-13.262,32.021L77.468,364.065z"/>
<polygon points="465.171,228.423 449.561,228.423 449.561,198.244 419.382,198.244 419.382,205.528 403.772,205.528 
	403.772,182.634 465.171,182.634 "/>
<polygon points="442.276,158.699 442.276,143.089 426.667,143.089 426.667,158.699 403.772,158.699 403.772,174.309 
	465.171,174.309 465.171,158.699 "/>
<path d="M434.532,364.065l-17.828-17.828c-8.553-8.552-13.263-19.924-13.263-32.021h15.61c0,7.927,3.087,15.379,8.691,20.983
	l6.79,6.79l6.789-6.79c5.606-5.605,8.693-13.057,8.693-20.983h15.61c0,12.095-4.71,23.468-13.263,32.021L434.532,364.065z"/>
<path d="M209.171,187.346v-35.932h-15.61v25.757L0,262.556v43.915h193.561v15.61h15.61v-31.22H108.228v-58.987L209.171,187.346z
	 M15.61,272.731l31.22-13.772v31.903H15.61V272.731z M92.618,290.862H62.439v-38.788l30.179-13.313V290.862z"/>
<path d="M318.439,177.172v-25.757h-15.61v35.932l100.943,44.528v58.987H302.829v31.22h15.61v-15.61H512v-43.915L318.439,177.172z
	 M419.382,238.761l30.179,13.313v38.788h-30.179V238.761z M496.39,290.862h-31.22v-31.903l31.22,13.772V290.862z"/>
<path d="M294.504,97.301h-77.008V73.588c0-21.424,17.273-38.854,38.504-38.854s38.504,17.43,38.504,38.854V97.301z M233.106,81.691
	h45.789v-8.104c0-13.034-10.056-23.244-22.894-23.244c-12.839,0-22.894,10.21-22.894,23.244V81.691z"/>
<g>
	<rect x="224.78" y="127.48" style="fill:#FF1D25;" width="15.61" height="15.61"/>
	<rect x="224.78" y="158.699" style="fill:#FF1D25;" width="15.61" height="15.61"/>
	<rect x="224.78" y="189.919" style="fill:#FF1D25;" width="15.61" height="15.61"/>
	<rect x="224.78" y="221.138" style="fill:#FF1D25;" width="15.61" height="15.61"/>
	<rect x="224.78" y="252.358" style="fill:#FF1D25;" width="15.61" height="15.61"/>
	<rect x="224.78" y="283.577" style="fill:#FF1D25;" width="15.61" height="15.61"/>
	<rect x="224.78" y="313.756" style="fill:#FF1D25;" width="15.61" height="15.61"/>
	<rect x="271.61" y="127.48" style="fill:#FF1D25;" width="15.61" height="15.61"/>
	<rect x="271.61" y="158.699" style="fill:#FF1D25;" width="15.61" height="15.61"/>
	<rect x="271.61" y="189.919" style="fill:#FF1D25;" width="15.61" height="15.61"/>
	<rect x="271.61" y="221.138" style="fill:#FF1D25;" width="15.61" height="15.61"/>
	<rect x="271.61" y="252.358" style="fill:#FF1D25;" width="15.61" height="15.61"/>
	<rect x="271.61" y="283.577" style="fill:#FF1D25;" width="15.61" height="15.61"/>
	<rect x="271.61" y="313.756" style="fill:#FF1D25;" width="15.61" height="15.61"/>
</g>
</svg>